<svg width="22" height="21" viewBox="0 0 22 21" fill="none" xmlns="http://www.w3.org/2000/svg" alt="Twitter" title="Twitter">
                                <path d="M11 0.655273C5.41948 0.655273 0.879997 5.19475 0.879997 10.7753C0.879997 16.3558 5.41948 20.8953 11 20.8953C16.5805 20.8953 21.12 16.3558 21.12 10.7753C21.12 5.19475 16.5805 0.655273 11 0.655273ZM15.9443 8.80583C15.9487 8.90967 15.9513 9.01527 15.9513 9.12131C15.9513 12.3412 13.4992 16.0553 9.01604 16.0553C7.63972 16.0553 6.358 15.6518 5.28 14.9601C5.47052 14.983 5.66368 14.994 5.86124 14.994C7.00348 14.994 8.05464 14.605 8.888 13.9512C7.82144 13.9318 6.92208 13.2256 6.611 12.2585C6.76016 12.2871 6.91284 12.3025 7.07036 12.3025C7.29256 12.3025 7.50816 12.273 7.71188 12.2167C6.5978 11.9919 5.75784 11.008 5.75784 9.82663C5.75784 9.81607 5.75784 9.80595 5.75784 9.79583C6.08652 9.97843 6.46184 10.0884 6.8618 10.1012C6.20708 9.66339 5.77764 8.91803 5.77764 8.07235C5.77764 7.62575 5.89732 7.20731 6.1072 6.84651C7.30972 8.32095 9.1058 9.29115 11.1311 9.39323C11.0893 9.21459 11.0673 9.02891 11.0673 8.83795C11.0673 7.49199 12.1585 6.40079 13.5049 6.40079C14.2058 6.40079 14.839 6.69647 15.2834 7.17035C15.8382 7.06123 16.3605 6.85839 16.8313 6.57943C16.6496 7.14791 16.2628 7.62575 15.759 7.92759C16.2527 7.86775 16.7218 7.73751 17.1596 7.54347C16.8331 8.03231 16.4199 8.46219 15.9443 8.80583Z" fill="#F6F7F9"></path>
                            </svg>