<svg width="230" height="50" viewBox="0 0 230 50" fill="none" xmlns="http://www.w3.org/2000/svg">
                        <path d="M118.055 29.7547C118.616 31.8485 120.18 32.8763 122.74 32.8763C124.368 32.8763 125.632 32.3082 126.462 31.2166L129.916 33.2083C128.288 35.5703 125.862 36.764 122.67 36.764C119.912 36.764 117.723 35.9341 116.057 34.2744C114.397 32.6146 113.567 30.5207 113.567 27.9928C113.567 25.5031 114.397 23.4092 116.025 21.7495C117.652 20.0578 119.778 19.2215 122.338 19.2215C124.764 19.2215 126.794 20.0514 128.352 21.7495C129.948 23.4412 130.745 25.5031 130.745 27.9928C130.745 28.5609 130.682 29.1227 130.58 29.7547H118.055ZM126.462 26.4287C125.964 24.1689 124.304 23.0709 122.344 23.0709C120.053 23.0709 118.489 24.303 117.991 26.4287H126.462Z" fill="black"></path>
                        <path d="M61.2329 26.2308C63.6587 26.7287 66.8123 27.8906 66.7804 31.4463C66.7804 33.138 66.1484 34.4722 64.8525 35.3979C63.5885 36.298 61.9926 36.7576 60.103 36.7576C56.6813 36.7576 54.3576 35.4298 53.1255 32.8061L56.8473 30.7122C57.3452 32.1421 58.4113 32.8699 60.103 32.8699C61.6351 32.8699 62.3947 32.4039 62.3947 31.4399C62.3947 30.5462 61.0669 30.0419 59.3689 29.6142C56.9111 28.9822 53.8214 27.9544 53.8214 24.4944C53.8214 22.8666 54.4215 21.5707 55.6152 20.6386C56.8473 19.6747 58.3411 19.2087 60.1349 19.2087C62.8288 19.2087 65.1525 20.4727 66.4484 22.7325L62.7905 24.7242C62.2607 23.5943 61.3606 23.0325 60.1349 23.0325C59.0369 23.0325 58.207 23.5624 58.207 24.3923C58.207 25.2988 59.5348 25.7967 61.2329 26.2308Z" fill="black"></path>
                        <path d="M94.3581 26.0649V36.298H90.0747V26.3649C90.0747 24.3732 89.0469 23.205 87.285 23.205C85.3251 23.205 84.1952 24.5328 84.1952 26.9586V36.298H79.9117V26.3649C79.9117 24.3732 78.8839 23.205 77.122 23.205C75.2261 23.205 74.0004 24.5328 74.0004 26.9586V36.298H69.7169V19.6875H74.0004V21.4494C74.9962 19.9556 76.5283 19.2215 78.6158 19.2215C80.6459 19.2215 82.1716 20.0195 83.1355 21.6154C84.2335 20.0195 85.8933 19.2215 88.0893 19.2215C91.9004 19.2215 94.3581 21.9091 94.3581 26.0649Z" fill="black"></path>
                        <path d="M97.5181 15.0657C97.5181 13.6357 98.7119 12.41 100.142 12.41C101.604 12.41 102.797 13.6421 102.797 15.0657C102.797 16.4956 101.604 17.6894 100.142 17.6894C98.7183 17.6894 97.5181 16.4956 97.5181 15.0657ZM98.0161 19.6875H102.3V36.298H98.0161V19.6875Z" fill="black"></path>
                        <path d="M110.509 12.0461H106.226V36.298H110.509V12.0461Z" fill="black"></path>
                        <path d="M146.201 13.0421H150.484V36.298H146.201V34.3382C144.937 35.9661 143.143 36.7641 140.819 36.7641C138.591 36.7641 136.663 35.9342 135.074 34.2425C133.51 32.5508 132.712 30.4569 132.712 27.9928C132.712 25.535 133.51 23.4731 135.074 21.7814C136.67 20.0897 138.598 19.2215 140.819 19.2215C143.143 19.2215 144.937 20.0195 146.201 21.6473V13.0421ZM141.611 32.6785C142.938 32.6785 144.036 32.2444 144.898 31.3826C145.76 30.4824 146.194 29.3589 146.194 27.9928C146.194 26.6267 145.76 25.5031 144.898 24.6349C144.036 23.7412 142.938 23.3071 141.611 23.3071C140.283 23.3071 139.185 23.7412 138.291 24.6349C137.429 25.4967 136.995 26.6267 136.995 27.9928C136.995 29.3525 137.429 30.4824 138.291 31.3826C139.191 32.2444 140.283 32.6785 141.611 32.6785Z" fill="black"></path>
                        <path d="M158.03 29.7547C158.598 31.8485 160.155 32.8763 162.715 32.8763C164.343 32.8763 165.607 32.3082 166.437 31.2166L169.891 33.2083C168.263 35.5703 165.837 36.764 162.645 36.764C159.887 36.764 157.698 35.9341 156.032 34.2744C154.372 32.6146 153.542 30.5207 153.542 27.9928C153.542 25.5031 154.372 23.4092 156 21.7495C157.627 20.0578 159.753 19.2215 162.313 19.2215C164.739 19.2215 166.763 20.0514 168.327 21.7495C169.923 23.4412 170.721 25.5031 170.721 27.9928C170.721 28.5609 170.657 29.1227 170.555 29.7547H158.03ZM166.437 26.4287C165.939 24.1689 164.279 23.0709 162.32 23.0709C160.028 23.0709 158.464 24.303 157.966 26.4287H166.437Z" fill="black"></path>
                        <path d="M187.44 21.0472C188.633 22.2793 189.233 23.9391 189.233 26.0968V36.298H184.95V26.6266C184.95 24.3987 183.654 23.205 181.662 23.205C179.434 23.205 178.011 24.5647 178.011 27.3225V36.2916H173.721V19.6875H178.011V21.5452C179.039 19.9812 180.705 19.2215 182.958 19.2215C184.778 19.2215 186.271 19.8152 187.44 21.0472Z" fill="black"></path>
                        <path d="M202.39 23.805H198.637V30.7186C198.637 32.5125 199.933 32.5444 202.39 32.4103V36.298C196.511 36.9619 194.347 35.2702 194.347 30.7186V23.805H191.455V19.6875H194.347V16.3297L198.63 15.0338V19.6875H202.384V23.805H202.39Z" fill="black"></path>
                        <path d="M217.545 19.6875H221.829V36.298H217.545V34.3382C216.249 35.9661 214.456 36.764 212.132 36.764C209.904 36.764 208.014 35.9341 206.418 34.2425C204.854 32.5508 204.056 30.4569 204.056 27.9928C204.056 25.535 204.854 23.4731 206.418 21.7814C208.014 20.0897 209.904 19.2215 212.132 19.2215C214.456 19.2215 216.249 20.0195 217.545 21.6473V19.6875ZM212.923 32.6784C214.251 32.6784 215.349 32.2443 216.211 31.3825C217.105 30.4824 217.539 29.3589 217.539 27.9928C217.539 26.6266 217.105 25.5031 216.211 24.6349C215.349 23.7412 214.251 23.3071 212.923 23.3071C211.596 23.3071 210.498 23.7412 209.636 24.6349C208.774 25.4967 208.34 26.6266 208.34 27.9928C208.34 29.3525 208.774 30.4824 209.636 31.3825C210.498 32.2443 211.596 32.6784 212.923 32.6784Z" fill="black"></path>
                        <path d="M230 12.0461H225.716V36.298H230V12.0461Z" fill="black"></path>
                        <path d="M0 18.2447C0 28.3247 8.1712 36.4895 18.2447 36.4895V0C8.1712 0 0 8.1712 0 18.2447Z" fill="#FFD961"></path>
                        <path d="M39.6878 31.0122C39.6878 20.9387 31.5166 12.7675 21.4366 12.7675V49.2633C31.5166 49.2633 39.6878 41.0921 39.6878 31.0122Z" fill="#69CEFA"></path>
                    </svg>