<svg width="18" height="19" viewBox="0 0 18 19" fill="none" xmlns="http://www.w3.org/2000/svg" alt="Instagram" title="Instagram">
                                <path d="M13 0.775391H5C2.239 0.775391 0 3.01439 0 5.77539V13.7754C0 16.5364 2.239 18.7754 5 18.7754H13C15.761 18.7754 18 16.5364 18 13.7754V5.77539C18 3.01439 15.761 0.775391 13 0.775391ZM9 14.7754C6.239 14.7754 4 12.5364 4 9.77539C4 7.01439 6.239 4.77539 9 4.77539C11.761 4.77539 14 7.01439 14 9.77539C14 12.5364 11.761 14.7754 9 14.7754ZM15 4.77539C14.448 4.77539 14 4.32739 14 3.77539C14 3.22339 14.448 2.77539 15 2.77539C15.552 2.77539 16 3.22339 16 3.77539C16 4.32739 15.552 4.77539 15 4.77539Z" fill="#F6F7F9"></path>
                                <path d="M9 6.77539C8.20435 6.77539 7.44129 7.09146 6.87868 7.65407C6.31607 8.21668 6 8.97974 6 9.77539C6 10.571 6.31607 11.3341 6.87868 11.8967C7.44129 12.4593 8.20435 12.7754 9 12.7754C9.79565 12.7754 10.5587 12.4593 11.1213 11.8967C11.6839 11.3341 12 10.571 12 9.77539C12 8.97974 11.6839 8.21668 11.1213 7.65407C10.5587 7.09146 9.79565 6.77539 9 6.77539Z" fill="#F6F7F9"></path>
                            </svg>