<svg width="20" height="17" viewBox="0 0 20 17" fill="none" xmlns="http://www.w3.org/2000/svg" alt="Youtube" title="Youtube">
                                <path d="M19.582 2.96139C19.352 2.10139 18.674 1.42339 17.814 1.19339C16.254 0.775391 10 0.775391 10 0.775391C10 0.775391 3.746 0.775391 2.186 1.19339C1.326 1.42339 0.648 2.10139 0.418 2.96139C-2.98023e-08 4.52139 0 8.77539 0 8.77539C0 8.77539 -2.98023e-08 13.0294 0.418 14.5894C0.648 15.4494 1.326 16.1274 2.186 16.3574C3.746 16.7754 10 16.7754 10 16.7754C10 16.7754 16.254 16.7754 17.814 16.3574C18.675 16.1274 19.352 15.4494 19.582 14.5894C20 13.0294 20 8.77539 20 8.77539C20 8.77539 20 4.52139 19.582 2.96139ZM8 11.3734V6.17739C8 5.79239 8.417 5.55239 8.75 5.74439L13.25 8.34239C13.583 8.53439 13.583 9.01639 13.25 9.20839L8.75 11.8064C8.417 11.9994 8 11.7584 8 11.3734Z" fill="#F6F7F9"></path>
                            </svg>